<svg width="14" height="17" viewBox="0 0 14 17" fill="none" xmlns="http://www.w3.org/2000/svg">
<path d="M1.0496 16.8853C0.60115 17.1848 0 16.8633 0 16.3241V3.51375C0 2.02479 1.20563 0.816998 2.69458 0.81433L10.7928 0.799809C12.2837 0.797151 13.4944 2.00356 13.4971 3.4944V16.3241C13.4971 16.8633 12.8959 17.1848 12.4475 16.8853L6.74855 13.0802L1.0496 16.8853ZM12.1474 3.49923L12.138 3.33943C12.0589 2.66831 11.4874 2.14829 10.7953 2.14952L2.697 2.16404C1.95252 2.16537 1.34971 2.76927 1.34971 3.51375V15.062L6.37381 11.7075C6.60067 11.556 6.89642 11.556 7.12329 11.7075L12.1474 15.062V3.49923Z" fill="#212121"/>
</svg>
