<svg width="21" height="25" viewBox="0 0 21 25" fill="none" xmlns="http://www.w3.org/2000/svg">
<path d="M2.52152 24.6932C1.8558 25.1377 0.963379 24.6605 0.963379 23.86V4.84285C0.963379 2.63247 2.75315 0.839488 4.96353 0.835529L16.9855 0.813971C19.1987 0.810026 20.996 2.60095 21 4.81413V23.86C21 24.6605 20.1076 25.1377 19.4419 24.6932L10.9817 19.0444L2.52152 24.6932ZM18.9964 4.82131L18.9825 4.58408C18.8649 3.58779 18.0166 2.81581 16.9891 2.81764L4.96712 2.83919C3.86193 2.84117 2.96704 3.73766 2.96704 4.84285V21.9865L10.4254 17.0066C10.7622 16.7817 11.2012 16.7817 11.538 17.0066L18.9964 21.9865V4.82131Z" fill="#212121"/>
</svg>
