<svg width="322" height="127" viewBox="0 0 322 127" fill="none" xmlns="http://www.w3.org/2000/svg">
<path d="M101.123 63.9824C101.123 69.7832 100.361 75.3789 98.8379 80.7695C97.373 86.1016 95.2637 91.1113 92.5098 95.7988C89.7559 100.428 86.4746 104.676 82.666 108.543C78.8574 112.352 74.6094 115.633 69.9219 118.387C65.2344 121.141 60.1953 123.279 54.8047 124.803C49.4727 126.268 43.9062 127 38.1055 127H0.136719V0.964844H38.1055C43.9062 0.964844 49.4727 1.72656 54.8047 3.25C60.1953 4.71484 65.2344 6.82422 69.9219 9.57812C74.6094 12.332 78.8574 15.6426 82.666 19.5098C86.4746 23.3184 89.7559 27.5664 92.5098 32.2539C95.2637 36.8828 97.373 41.8926 98.8379 47.2832C100.361 52.6152 101.123 58.1816 101.123 63.9824ZM75.8984 63.9824C75.8984 58.7676 74.9023 53.875 72.9102 49.3047C70.9766 44.7344 68.2812 40.75 64.8242 37.3516C61.4258 33.8945 57.4121 31.1699 52.7832 29.1777C48.2129 27.1855 43.3203 26.1895 38.1055 26.1895H25.5371V101.775H38.1055C43.3203 101.775 48.2129 100.809 52.7832 98.875C57.4121 96.8828 61.4258 94.1875 64.8242 90.7891C68.2812 87.332 70.9766 83.3184 72.9102 78.748C74.9023 74.1191 75.8984 69.1973 75.8984 63.9824ZM202.197 38.7578C202.197 43.9727 201.201 48.8945 199.209 53.5234C197.217 58.0938 194.492 62.1074 191.035 65.5645C187.637 68.9629 183.652 71.6582 179.082 73.6504C174.512 75.6426 169.619 76.6387 164.404 76.6387H151.748C149.99 76.6387 148.35 76.9609 146.826 77.6055C145.303 78.25 143.955 79.1582 142.783 80.3301C141.67 81.4434 140.791 82.7617 140.146 84.2852C139.502 85.8086 139.18 87.4492 139.18 89.207V101.775H198.77V127H113.955V89.207C113.955 83.9922 114.951 79.0996 116.943 74.5293C118.936 69.9004 121.631 65.8867 125.029 62.4883C128.486 59.0312 132.5 56.3359 137.07 54.4023C141.641 52.4102 146.533 51.4141 151.748 51.4141H164.404C166.162 51.4141 167.803 51.0918 169.326 50.4473C170.85 49.8027 172.168 48.9238 173.281 47.8105C174.453 46.6387 175.361 45.291 176.006 43.7676C176.65 42.1855 176.973 40.5156 176.973 38.7578C176.973 37 176.65 35.3594 176.006 33.8359C175.361 32.3125 174.453 30.9941 173.281 29.8809C172.168 28.709 170.85 27.8008 169.326 27.1562C167.803 26.5117 166.162 26.1895 164.404 26.1895H119.404V0.964844H164.404C169.619 0.964844 174.512 1.96094 179.082 3.95312C183.652 5.94531 187.637 8.66992 191.035 12.127C194.492 15.5254 197.217 19.5098 199.209 24.0801C201.201 28.6504 202.197 33.543 202.197 38.7578ZM245.967 127H220.742V0.964844H245.967V63.9824L292.9 0.964844H321.553L281.738 54.1387L321.553 127H292.9L265.215 76.0234L245.967 101.775V127Z" fill="url(#paint0_linear_738_656)"/>
<defs>
<linearGradient id="paint0_linear_738_656" x1="155" y1="0.488149" x2="155" y2="126.289" gradientUnits="userSpaceOnUse">
<stop stop-color="#D1000A"/>
<stop offset="1" stop-color="#4B0004"/>
</linearGradient>
</defs>
</svg>
