<svg width="336" height="36" viewBox="0 0 336 36" fill="none" xmlns="http://www.w3.org/2000/svg">
<path d="M22.1611 14.6963C22.1611 15.9209 22.0003 17.1022 21.6787 18.2402C21.3695 19.3659 20.9242 20.4235 20.3428 21.4131C19.7614 22.3903 19.0687 23.2871 18.2646 24.1035C17.4606 24.9076 16.5638 25.6003 15.5742 26.1816C14.5846 26.763 13.5208 27.2145 12.3828 27.5361C11.2572 27.8454 10.082 28 8.85742 28H0.841797V1.39258H8.85742C10.082 1.39258 11.2572 1.55339 12.3828 1.875C13.5208 2.18424 14.5846 2.62956 15.5742 3.21094C16.5638 3.79232 17.4606 4.49121 18.2646 5.30762C19.0687 6.11165 19.7614 7.00846 20.3428 7.99805C20.9242 8.97526 21.3695 10.0329 21.6787 11.1709C22.0003 12.2965 22.1611 13.4717 22.1611 14.6963ZM16.8359 14.6963C16.8359 13.5954 16.6257 12.5625 16.2051 11.5977C15.7969 10.6328 15.2279 9.79167 14.498 9.07422C13.7806 8.3444 12.9333 7.76921 11.9561 7.34863C10.9912 6.92806 9.95833 6.71777 8.85742 6.71777H6.2041V22.6748H8.85742C9.95833 22.6748 10.9912 22.4707 11.9561 22.0625C12.9333 21.6419 13.7806 21.0729 14.498 20.3555C15.2279 19.6257 15.7969 18.7783 16.2051 17.8135C16.6257 16.8363 16.8359 15.7972 16.8359 14.6963ZM44.4082 28H43.1836L41.2168 25.2725C40.7344 25.7054 40.221 26.1136 39.6768 26.4971C39.1449 26.8682 38.582 27.196 37.9883 27.4805C37.3945 27.7526 36.7822 27.9691 36.1514 28.1299C35.5329 28.2907 34.902 28.3711 34.2588 28.3711C32.861 28.3711 31.5436 28.1361 30.3066 27.666C29.082 27.196 28.0059 26.5156 27.0781 25.625C26.1628 24.722 25.4391 23.6211 24.9072 22.3223C24.3753 21.0234 24.1094 19.5452 24.1094 17.8877C24.1094 16.3415 24.3753 14.9251 24.9072 13.6387C25.4391 12.3398 26.1628 11.2266 27.0781 10.2988C28.0059 9.37109 29.082 8.65365 30.3066 8.14648C31.5436 7.62695 32.861 7.36719 34.2588 7.36719C34.902 7.36719 35.5391 7.44759 36.1699 7.6084C36.8008 7.76921 37.4131 7.99186 38.0068 8.27637C38.6006 8.56087 39.1634 8.89486 39.6953 9.27832C40.2396 9.66178 40.7467 10.0762 41.2168 10.5215L43.1836 8.16504H44.4082V28ZM39.3057 17.8877C39.3057 17.195 39.1696 16.527 38.8975 15.8838C38.6377 15.2282 38.279 14.653 37.8213 14.1582C37.3636 13.651 36.8255 13.249 36.207 12.9521C35.6009 12.6429 34.9515 12.4883 34.2588 12.4883C33.5661 12.4883 32.9105 12.6058 32.292 12.8408C31.6859 13.0758 31.154 13.4222 30.6963 13.8799C30.251 14.3376 29.8984 14.9066 29.6387 15.5869C29.3789 16.2549 29.249 17.0218 29.249 17.8877C29.249 18.7536 29.3789 19.5267 29.6387 20.207C29.8984 20.875 30.251 21.4378 30.6963 21.8955C31.154 22.3532 31.6859 22.6995 32.292 22.9346C32.9105 23.1696 33.5661 23.2871 34.2588 23.2871C34.9515 23.2871 35.6009 23.1387 36.207 22.8418C36.8255 22.5326 37.3636 22.1305 37.8213 21.6357C38.279 21.1286 38.6377 20.5534 38.8975 19.9102C39.1696 19.2546 39.3057 18.5804 39.3057 17.8877ZM58.25 28C57.0254 28 55.875 27.7712 54.7988 27.3135C53.7227 26.8434 52.7764 26.2064 51.96 25.4023C51.1559 24.5859 50.5189 23.6396 50.0488 22.5635C49.5911 21.4873 49.3623 20.3369 49.3623 19.1123V13.2119H46.8945V8.16504H49.3623V0.223633H54.4092V8.16504H62.0908V13.2119H54.4092V19.1123C54.4092 19.6442 54.5081 20.1452 54.7061 20.6152C54.904 21.0729 55.1761 21.4749 55.5225 21.8213C55.8688 22.1676 56.277 22.446 56.7471 22.6562C57.2171 22.8542 57.7181 22.9531 58.25 22.9531H62.0908V28H58.25ZM84.1895 28H82.9648L80.998 25.2725C80.5156 25.7054 80.0023 26.1136 79.458 26.4971C78.9261 26.8682 78.3633 27.196 77.7695 27.4805C77.1758 27.7526 76.5635 27.9691 75.9326 28.1299C75.3141 28.2907 74.6833 28.3711 74.04 28.3711C72.6423 28.3711 71.3249 28.1361 70.0879 27.666C68.8633 27.196 67.7871 26.5156 66.8594 25.625C65.944 24.722 65.2204 23.6211 64.6885 22.3223C64.1566 21.0234 63.8906 19.5452 63.8906 17.8877C63.8906 16.3415 64.1566 14.9251 64.6885 13.6387C65.2204 12.3398 65.944 11.2266 66.8594 10.2988C67.7871 9.37109 68.8633 8.65365 70.0879 8.14648C71.3249 7.62695 72.6423 7.36719 74.04 7.36719C74.6833 7.36719 75.3203 7.44759 75.9512 7.6084C76.582 7.76921 77.1943 7.99186 77.7881 8.27637C78.3818 8.56087 78.9447 8.89486 79.4766 9.27832C80.0208 9.66178 80.528 10.0762 80.998 10.5215L82.9648 8.16504H84.1895V28ZM79.0869 17.8877C79.0869 17.195 78.9508 16.527 78.6787 15.8838C78.4189 15.2282 78.0602 14.653 77.6025 14.1582C77.1449 13.651 76.6068 13.249 75.9883 12.9521C75.3822 12.6429 74.7327 12.4883 74.04 12.4883C73.3473 12.4883 72.6917 12.6058 72.0732 12.8408C71.4671 13.0758 70.9352 13.4222 70.4775 13.8799C70.0322 14.3376 69.6797 14.9066 69.4199 15.5869C69.1602 16.2549 69.0303 17.0218 69.0303 17.8877C69.0303 18.7536 69.1602 19.5267 69.4199 20.207C69.6797 20.875 70.0322 21.4378 70.4775 21.8955C70.9352 22.3532 71.4671 22.6995 72.0732 22.9346C72.6917 23.1696 73.3473 23.2871 74.04 23.2871C74.7327 23.2871 75.3822 23.1387 75.9883 22.8418C76.6068 22.5326 77.1449 22.1305 77.6025 21.6357C78.0602 21.1286 78.4189 20.5534 78.6787 19.9102C78.9508 19.2546 79.0869 18.5804 79.0869 17.8877ZM108.682 28C107.457 28 106.307 27.7712 105.23 27.3135C104.154 26.8434 103.208 26.2064 102.392 25.4023C101.588 24.5859 100.951 23.6396 100.48 22.5635C100.023 21.4873 99.7939 20.3369 99.7939 19.1123V13.2119H97.3262V8.16504H99.7939V0.223633H104.841V8.16504H112.522V13.2119H104.841V19.1123C104.841 19.6442 104.94 20.1452 105.138 20.6152C105.336 21.0729 105.608 21.4749 105.954 21.8213C106.3 22.1676 106.709 22.446 107.179 22.6562C107.649 22.8542 108.15 22.9531 108.682 22.9531H112.522V28H108.682ZM134.584 17.8877C134.584 19.3721 134.318 20.7575 133.786 22.0439C133.254 23.318 132.531 24.4251 131.615 25.3652C130.7 26.293 129.624 27.029 128.387 27.5732C127.162 28.1051 125.845 28.3711 124.435 28.3711C123.037 28.3711 121.719 28.1051 120.482 27.5732C119.258 27.029 118.182 26.293 117.254 25.3652C116.339 24.4251 115.615 23.318 115.083 22.0439C114.551 20.7575 114.285 19.3721 114.285 17.8877C114.285 16.3786 114.551 14.9808 115.083 13.6943C115.615 12.4079 116.339 11.3008 117.254 10.373C118.182 9.43294 119.258 8.69694 120.482 8.16504C121.719 7.63314 123.037 7.36719 124.435 7.36719C125.845 7.36719 127.162 7.62077 128.387 8.12793C129.624 8.62272 130.7 9.33398 131.615 10.2617C132.531 11.1771 133.254 12.2842 133.786 13.583C134.318 14.8695 134.584 16.3044 134.584 17.8877ZM129.481 17.8877C129.481 17.0713 129.345 16.3353 129.073 15.6797C128.813 15.0117 128.455 14.4427 127.997 13.9727C127.539 13.4902 127.001 13.1253 126.383 12.8779C125.777 12.6182 125.127 12.4883 124.435 12.4883C123.742 12.4883 123.086 12.6182 122.468 12.8779C121.862 13.1253 121.33 13.4902 120.872 13.9727C120.427 14.4427 120.074 15.0117 119.814 15.6797C119.555 16.3353 119.425 17.0713 119.425 17.8877C119.425 18.6546 119.555 19.3659 119.814 20.0215C120.074 20.6771 120.427 21.2461 120.872 21.7285C121.33 22.2109 121.862 22.5944 122.468 22.8789C123.086 23.151 123.742 23.2871 124.435 23.2871C125.127 23.2871 125.777 23.1572 126.383 22.8975C127.001 22.6377 127.539 22.2728 127.997 21.8027C128.455 21.3327 128.813 20.7637 129.073 20.0957C129.345 19.4277 129.481 18.6917 129.481 17.8877ZM153.899 28H148.574V1.39258H153.899V14.6963L163.808 1.39258H169.856L161.451 12.6182L169.856 28H163.808L157.963 17.2383L153.899 22.6748V28ZM176.518 28H171.452V8.12793H172.677L174.347 10.0576C175.163 9.31543 176.085 8.74642 177.111 8.35059C178.15 7.94238 179.233 7.73828 180.358 7.73828C181.571 7.73828 182.715 7.97331 183.791 8.44336C184.867 8.90104 185.807 9.53809 186.611 10.3545C187.415 11.1585 188.046 12.1048 188.504 13.1934C188.974 14.2695 189.209 15.4199 189.209 16.6445V28H184.144V16.6445C184.144 16.125 184.045 15.6364 183.847 15.1787C183.649 14.7087 183.377 14.3005 183.03 13.9541C182.684 13.6077 182.282 13.3356 181.824 13.1377C181.367 12.9398 180.878 12.8408 180.358 12.8408C179.826 12.8408 179.326 12.9398 178.855 13.1377C178.385 13.3356 177.977 13.6077 177.631 13.9541C177.285 14.3005 177.012 14.7087 176.814 15.1787C176.617 15.6364 176.518 16.125 176.518 16.6445V28ZM212.031 17.8877C212.031 19.3721 211.765 20.7575 211.233 22.0439C210.701 23.318 209.978 24.4251 209.062 25.3652C208.147 26.293 207.071 27.029 205.834 27.5732C204.609 28.1051 203.292 28.3711 201.882 28.3711C200.484 28.3711 199.167 28.1051 197.93 27.5732C196.705 27.029 195.629 26.293 194.701 25.3652C193.786 24.4251 193.062 23.318 192.53 22.0439C191.998 20.7575 191.732 19.3721 191.732 17.8877C191.732 16.3786 191.998 14.9808 192.53 13.6943C193.062 12.4079 193.786 11.3008 194.701 10.373C195.629 9.43294 196.705 8.69694 197.93 8.16504C199.167 7.63314 200.484 7.36719 201.882 7.36719C203.292 7.36719 204.609 7.62077 205.834 8.12793C207.071 8.62272 208.147 9.33398 209.062 10.2617C209.978 11.1771 210.701 12.2842 211.233 13.583C211.765 14.8695 212.031 16.3044 212.031 17.8877ZM206.929 17.8877C206.929 17.0713 206.793 16.3353 206.521 15.6797C206.261 15.0117 205.902 14.4427 205.444 13.9727C204.987 13.4902 204.449 13.1253 203.83 12.8779C203.224 12.6182 202.575 12.4883 201.882 12.4883C201.189 12.4883 200.534 12.6182 199.915 12.8779C199.309 13.1253 198.777 13.4902 198.319 13.9727C197.874 14.4427 197.521 15.0117 197.262 15.6797C197.002 16.3353 196.872 17.0713 196.872 17.8877C196.872 18.6546 197.002 19.3659 197.262 20.0215C197.521 20.6771 197.874 21.2461 198.319 21.7285C198.777 22.2109 199.309 22.5944 199.915 22.8789C200.534 23.151 201.189 23.2871 201.882 23.2871C202.575 23.2871 203.224 23.1572 203.83 22.8975C204.449 22.6377 204.987 22.2728 205.444 21.8027C205.902 21.3327 206.261 20.7637 206.521 20.0957C206.793 19.4277 206.929 18.6917 206.929 17.8877ZM239.919 20.8193C239.919 21.8584 239.721 22.8418 239.325 23.7695C238.929 24.6849 238.385 25.4827 237.692 26.1631C237.012 26.8434 236.208 27.3815 235.28 27.7773C234.365 28.1732 233.382 28.3711 232.33 28.3711C231.39 28.3711 230.487 28.2103 229.621 27.8887C228.755 27.5547 227.97 27.0723 227.265 26.4414C226.572 27.0723 225.793 27.5547 224.927 27.8887C224.073 28.2103 223.17 28.3711 222.218 28.3711C221.166 28.3711 220.183 28.1732 219.268 27.7773C218.352 27.3815 217.548 26.8434 216.855 26.1631C216.175 25.4827 215.637 24.6849 215.241 23.7695C214.845 22.8418 214.647 21.8584 214.647 20.8193V8.16504H219.713V20.8193C219.713 21.1657 219.775 21.4935 219.898 21.8027C220.035 22.0996 220.214 22.3656 220.437 22.6006C220.672 22.8232 220.938 23.0026 221.234 23.1387C221.544 23.2624 221.871 23.3242 222.218 23.3242C222.564 23.3242 222.892 23.2624 223.201 23.1387C223.51 23.0026 223.783 22.8232 224.018 22.6006C224.253 22.3656 224.432 22.0996 224.556 21.8027C224.692 21.4935 224.76 21.1657 224.76 20.8193V8.16504H229.807V20.8193C229.807 21.1657 229.875 21.4935 230.011 21.8027C230.147 22.0996 230.326 22.3656 230.549 22.6006C230.784 22.8232 231.05 23.0026 231.347 23.1387C231.656 23.2624 231.984 23.3242 232.33 23.3242C232.676 23.3242 233.004 23.2624 233.313 23.1387C233.623 23.0026 233.889 22.8232 234.111 22.6006C234.346 22.3656 234.532 22.0996 234.668 21.8027C234.804 21.4935 234.872 21.1657 234.872 20.8193V8.16504H239.919V20.8193ZM248.695 28H243.593V0.223633H248.695V28ZM260.478 23.1387C260.675 23.2005 260.873 23.2438 261.071 23.2686C261.269 23.2809 261.467 23.2871 261.665 23.2871C262.16 23.2871 262.636 23.2191 263.094 23.083C263.551 22.9469 263.978 22.7552 264.374 22.5078C264.782 22.248 265.141 21.9388 265.45 21.5801C265.772 21.209 266.032 20.8008 266.229 20.3555L269.94 24.085C269.47 24.7529 268.926 25.3529 268.308 25.8848C267.701 26.4167 267.04 26.8682 266.322 27.2393C265.617 27.6104 264.869 27.8887 264.077 28.0742C263.298 28.2721 262.494 28.3711 261.665 28.3711C260.267 28.3711 258.95 28.1113 257.713 27.5918C256.488 27.0723 255.412 26.3486 254.484 25.4209C253.569 24.4932 252.845 23.3923 252.313 22.1182C251.782 20.8317 251.516 19.4215 251.516 17.8877C251.516 16.3167 251.782 14.8818 252.313 13.583C252.845 12.2842 253.569 11.1771 254.484 10.2617C255.412 9.34635 256.488 8.63509 257.713 8.12793C258.95 7.62077 260.267 7.36719 261.665 7.36719C262.494 7.36719 263.304 7.46615 264.096 7.66406C264.887 7.86198 265.636 8.14648 266.341 8.51758C267.058 8.88867 267.726 9.34635 268.345 9.89062C268.963 10.4225 269.507 11.0225 269.978 11.6904L260.478 23.1387ZM263.075 12.6924C262.84 12.6058 262.605 12.5501 262.37 12.5254C262.147 12.5007 261.912 12.4883 261.665 12.4883C260.972 12.4883 260.317 12.6182 259.698 12.8779C259.092 13.1253 258.56 13.484 258.103 13.9541C257.657 14.4242 257.305 14.9932 257.045 15.6611C256.785 16.3167 256.655 17.0589 256.655 17.8877C256.655 18.0732 256.661 18.2835 256.674 18.5186C256.699 18.7536 256.729 18.9948 256.767 19.2422C256.816 19.4772 256.872 19.7061 256.934 19.9287C256.995 20.1514 257.076 20.3493 257.175 20.5225L263.075 12.6924ZM291.594 28H290.369L288.402 25.2725C287.92 25.7054 287.407 26.1136 286.862 26.4971C286.33 26.8682 285.768 27.196 285.174 27.4805C284.58 27.7526 283.968 27.9691 283.337 28.1299C282.718 28.2907 282.088 28.3711 281.444 28.3711C280.047 28.3711 278.729 28.1113 277.492 27.5918C276.268 27.0599 275.191 26.3301 274.264 25.4023C273.348 24.4622 272.625 23.3551 272.093 22.0811C271.561 20.7946 271.295 19.3968 271.295 17.8877C271.295 16.391 271.561 14.9993 272.093 13.7129C272.625 12.4264 273.348 11.3132 274.264 10.373C275.191 9.43294 276.268 8.69694 277.492 8.16504C278.729 7.63314 280.047 7.36719 281.444 7.36719C281.89 7.36719 282.347 7.4043 282.817 7.47852C283.3 7.55273 283.764 7.67643 284.209 7.84961C284.667 8.01042 285.093 8.22689 285.489 8.49902C285.885 8.77116 286.219 9.10514 286.491 9.50098V0.223633H291.594V28ZM286.491 17.8877C286.491 17.195 286.355 16.527 286.083 15.8838C285.823 15.2282 285.465 14.653 285.007 14.1582C284.549 13.651 284.011 13.249 283.393 12.9521C282.786 12.6429 282.137 12.4883 281.444 12.4883C280.752 12.4883 280.096 12.612 279.478 12.8594C278.871 13.1068 278.34 13.4655 277.882 13.9355C277.437 14.3932 277.084 14.9561 276.824 15.624C276.564 16.292 276.435 17.0465 276.435 17.8877C276.435 18.6175 276.564 19.3102 276.824 19.9658C277.084 20.6214 277.437 21.1966 277.882 21.6914C278.34 22.1862 278.871 22.5758 279.478 22.8604C280.096 23.1449 280.752 23.2871 281.444 23.2871C282.137 23.2871 282.786 23.1387 283.393 22.8418C284.011 22.5326 284.549 22.1305 285.007 21.6357C285.465 21.1286 285.823 20.5534 286.083 19.9102C286.355 19.2546 286.491 18.5804 286.491 17.8877ZM309.61 17.8877C309.61 17.195 309.474 16.527 309.202 15.8838C308.942 15.2282 308.584 14.653 308.126 14.1582C307.668 13.651 307.13 13.249 306.512 12.9521C305.906 12.6429 305.256 12.4883 304.563 12.4883C303.871 12.4883 303.215 12.6058 302.597 12.8408C301.991 13.0758 301.459 13.4222 301.001 13.8799C300.556 14.3376 300.203 14.9066 299.943 15.5869C299.684 16.2549 299.554 17.0218 299.554 17.8877C299.554 18.7165 299.684 19.4648 299.943 20.1328C300.203 20.7884 300.556 21.3512 301.001 21.8213C301.459 22.2913 301.991 22.6562 302.597 22.916C303.215 23.1634 303.871 23.2871 304.563 23.2871C305.256 23.2871 305.906 23.1387 306.512 22.8418C307.13 22.5326 307.668 22.1305 308.126 21.6357C308.584 21.1286 308.942 20.5534 309.202 19.9102C309.474 19.2546 309.61 18.5804 309.61 17.8877ZM314.713 25.4951C314.713 26.8929 314.447 28.2041 313.915 29.4287C313.383 30.6533 312.653 31.7233 311.726 32.6387C310.81 33.554 309.734 34.2777 308.497 34.8096C307.272 35.3415 305.961 35.6074 304.563 35.6074L302.021 35.5703V30.5049L304.526 30.542C305.318 30.542 305.992 30.4368 306.549 30.2266C307.105 30.0286 307.576 29.7503 307.959 29.3916C308.342 29.0452 308.646 28.6432 308.868 28.1855C309.103 27.7279 309.289 27.2454 309.425 26.7383C309.227 27.0599 308.942 27.3258 308.571 27.5361C308.2 27.734 307.786 27.8949 307.328 28.0186C306.883 28.1546 306.413 28.2474 305.918 28.2969C305.436 28.3464 304.984 28.3711 304.563 28.3711C303.166 28.3711 301.848 28.1299 300.611 27.6475C299.387 27.165 298.311 26.4785 297.383 25.5879C296.467 24.6849 295.744 23.584 295.212 22.2852C294.68 20.9863 294.414 19.5205 294.414 17.8877C294.414 16.391 294.68 14.9993 295.212 13.7129C295.744 12.4264 296.467 11.3132 297.383 10.373C298.311 9.43294 299.387 8.69694 300.611 8.16504C301.848 7.63314 303.166 7.36719 304.563 7.36719C305.207 7.36719 305.844 7.44759 306.475 7.6084C307.105 7.76921 307.718 7.99186 308.312 8.27637C308.905 8.56087 309.468 8.89486 310 9.27832C310.544 9.66178 311.051 10.0762 311.521 10.5215L313.488 8.16504H314.713V25.4951ZM326.495 23.1387C326.693 23.2005 326.891 23.2438 327.089 23.2686C327.287 23.2809 327.485 23.2871 327.683 23.2871C328.177 23.2871 328.654 23.2191 329.111 23.083C329.569 22.9469 329.996 22.7552 330.392 22.5078C330.8 22.248 331.159 21.9388 331.468 21.5801C331.789 21.209 332.049 20.8008 332.247 20.3555L335.958 24.085C335.488 24.7529 334.944 25.3529 334.325 25.8848C333.719 26.4167 333.057 26.8682 332.34 27.2393C331.635 27.6104 330.886 27.8887 330.095 28.0742C329.315 28.2721 328.511 28.3711 327.683 28.3711C326.285 28.3711 324.967 28.1113 323.73 27.5918C322.506 27.0723 321.43 26.3486 320.502 25.4209C319.587 24.4932 318.863 23.3923 318.331 22.1182C317.799 20.8317 317.533 19.4215 317.533 17.8877C317.533 16.3167 317.799 14.8818 318.331 13.583C318.863 12.2842 319.587 11.1771 320.502 10.2617C321.43 9.34635 322.506 8.63509 323.73 8.12793C324.967 7.62077 326.285 7.36719 327.683 7.36719C328.511 7.36719 329.322 7.46615 330.113 7.66406C330.905 7.86198 331.653 8.14648 332.358 8.51758C333.076 8.88867 333.744 9.34635 334.362 9.89062C334.981 10.4225 335.525 11.0225 335.995 11.6904L326.495 23.1387ZM329.093 12.6924C328.858 12.6058 328.623 12.5501 328.388 12.5254C328.165 12.5007 327.93 12.4883 327.683 12.4883C326.99 12.4883 326.334 12.6182 325.716 12.8779C325.11 13.1253 324.578 13.484 324.12 13.9541C323.675 14.4242 323.322 14.9932 323.062 15.6611C322.803 16.3167 322.673 17.0589 322.673 17.8877C322.673 18.0732 322.679 18.2835 322.691 18.5186C322.716 18.7536 322.747 18.9948 322.784 19.2422C322.834 19.4772 322.889 19.7061 322.951 19.9287C323.013 20.1514 323.093 20.3493 323.192 20.5225L329.093 12.6924Z" fill="url(#paint0_linear_738_657)"/>
<defs>
<linearGradient id="paint0_linear_738_657" x1="167.5" y1="1.80332" x2="167.5" y2="28.1991" gradientUnits="userSpaceOnUse">
<stop stop-color="#D1000A"/>
<stop offset="1" stop-color="#4B0004"/>
</linearGradient>
</defs>
</svg>
