<svg width="62" height="62" viewBox="0 0 62 62" fill="none" xmlns="http://www.w3.org/2000/svg">
<g filter="url(#filter0_d_738_688)">
<path d="M15.8015 42.6776L28.3802 48.9229V56.3735H7.31539C3.97512 56.3735 1.29688 53.9356 1.29688 50.8951V7.06799C1.29688 5.61503 1.93097 4.22158 3.05966 3.19418C4.18835 2.16679 5.71918 1.5896 7.31539 1.5896H10.3247V20.764L17.8478 16.6552L25.3709 20.764V1.5896H43.4265C45.0227 1.5896 46.5535 2.16679 47.6822 3.19418C48.8109 4.22158 49.445 5.61503 49.445 7.06799V30.4607L44.9311 28.2146L15.8015 42.6776ZM61.4821 42.6776L44.9311 34.46L28.3802 42.6776L44.9311 50.8951L61.4821 42.6776ZM34.3987 48.4025V53.8809L44.9311 59.1127L55.4635 53.8809V48.4025L44.9311 53.6343L34.3987 48.4025Z" fill="white"/>
</g>
<defs>
<filter id="filter0_d_738_688" x="0.296875" y="0.5896" width="70.1855" height="67.5232" filterUnits="userSpaceOnUse" color-interpolation-filters="sRGB">
<feFlood flood-opacity="0" result="BackgroundImageFix"/>
<feColorMatrix in="SourceAlpha" type="matrix" values="0 0 0 0 0 0 0 0 0 0 0 0 0 0 0 0 0 0 127 0" result="hardAlpha"/>
<feOffset dx="4" dy="4"/>
<feGaussianBlur stdDeviation="2.5"/>
<feComposite in2="hardAlpha" operator="out"/>
<feColorMatrix type="matrix" values="0 0 0 0 0.647059 0 0 0 0 1 0 0 0 0 0.839216 0 0 0 0.1 0"/>
<feBlend mode="normal" in2="BackgroundImageFix" result="effect1_dropShadow_738_688"/>
<feBlend mode="normal" in="SourceGraphic" in2="effect1_dropShadow_738_688" result="shape"/>
</filter>
</defs>
</svg>
