<svg width="61" height="60" viewBox="0 0 61 60" fill="none" xmlns="http://www.w3.org/2000/svg">
<g clip-path="url(#clip0_692_595)">
<rect x="0.74707" y="0.536133" width="59.3104" height="59.3104" rx="29.6552" fill="#63E296"/>
<path d="M17.9664 36.4261L43.1146 42.0999C52.1671 44.1438 55.1824 48.5075 55.557 50.4324C56.5357 56.5067 58.9878 70.3892 60.9786 77.3125C62.9694 84.2359 60.2884 88.4669 57.9337 88.9423L50.6349 89.4158L47.8287 78.4607L43.2514 65.5167L39.1163 88.6866L25.8966 77.7524L5.28037 74.239L8.63944 58.2985C2.82562 61.1184 -5.33611 66.9329 -8.65952 68.1641C-16.0498 70.8921 -21.5041 66.178 -22.5021 63.0063L-30.8403 38.6729L-21.7161 34.5304L-12.4289 53.7358C-7.56455 49.8386 -0.693229 44.4556 2.86155 41.8792C10.7042 34.7268 15.7326 35.9319 17.9664 36.4261Z" fill="#FF85D2"/>
<path d="M15.1348 61.9807C15.5273 62.4292 15.991 63.2761 14.7068 63.1154C13.1057 62.9141 14.2401 60.41 15.5054 60.9983C16.7707 61.5865 17.9193 64.0988 14.3649 64.0217C10.8105 63.9446 12.7177 59.203 14.9817 59.7652" stroke="white" stroke-width="1.20319" stroke-linecap="round"/>
<path d="M-0.644521 56.9734C-0.252043 57.4219 0.211665 58.2687 -1.07252 58.1081C-2.67364 57.9068 -1.53923 55.4027 -0.273936 55.9909C0.991358 56.5792 2.14263 59.0846 -1.4144 59.0144C-4.96882 58.9373 -3.06161 54.1957 -0.797637 54.7579" stroke="white" stroke-width="1.20319" stroke-linecap="round"/>
<path d="M37.2186 51.1679C37.6111 51.6164 38.0748 52.4633 36.7932 52.2956C35.1921 52.0944 36.3265 49.5903 37.5918 50.1785C38.8545 50.7737 40.0058 53.2791 36.4514 53.202C32.9039 53.1275 34.8042 48.3833 37.0681 48.9454" stroke="white" stroke-width="1.20319" stroke-linecap="round"/>
<path d="M9.47298 41.0272C9.86546 41.4757 10.3292 42.3226 9.04759 42.1549C7.44647 41.9536 8.58089 39.4495 9.84618 40.0378C11.1089 40.633 12.2601 43.1384 8.70571 43.0613C5.15129 42.9842 7.05851 38.2426 9.32248 38.8047" stroke="white" stroke-width="1.20319" stroke-linecap="round"/>
<path d="M9.87598 52.6753L8.7965 57.4539" stroke="white" stroke-width="1.80478" stroke-linecap="round"/>
<path d="M44.5664 59.5361L43.4869 64.3147" stroke="white" stroke-width="1.80478" stroke-linecap="round"/>
<path d="M39.3197 23.0172C39.4132 28.7064 36.1807 34.8073 31.5803 34.7612C28.5175 34.7268 25.4151 30.8739 23.4673 27.2516C22.2159 25.474 21.5361 24.0469 21.556 22.5045C21.6027 17.8489 25.3663 14.1153 29.9597 14.1587C34.5558 14.1953 39.2353 18.1222 39.3197 23.0172Z" fill="black"/>
<path d="M23.0585 26.5716L22.1596 24.95C23.2911 24.6106 25.8425 20.3544 26.047 18.636C26.5856 20.4377 29.6245 24.1422 35.2847 26.2591L34.1394 28.041C35.7797 26.7074 37.9156 27.6259 37.9595 29.2721C37.8336 32.104 35.5487 31.8332 34.5391 31.135L34.3323 39.8694L38.0639 40.7269C37.7067 41.6756 33.9032 45.395 28.9863 44.3899C23.1986 43.0316 21.6572 38.5407 21.2818 36.872L26.2195 37.885L26.2001 35.0614C25.1617 35.0484 22.9791 35.1564 22.084 33.3149C21.1604 31.423 22.1619 28.1548 23.0585 26.5716Z" fill="#6983FF"/>
<path d="M26.2273 37.1126L30.0376 34.7252C30.0376 34.7252 28.8501 34.9171 28.0889 34.9854C27.3511 35.0545 26.2056 35.0725 26.2056 35.0725L26.2273 37.1126Z" fill="black"/>
<path d="M26.3506 24.5767C26.0344 26.1375 27.2172 27.0624 27.2172 27.0624L25.7753 29.5676L27.4478 29.5842" stroke="black" stroke-width="1.80478" stroke-linecap="round"/>
<path d="M29.2008 24.0708C29.8185 23.9701 30.4389 23.9882 30.8698 24.1088" stroke="black" stroke-width="1.80478" stroke-linecap="round"/>
<path d="M23.607 24.2188C24.2248 24.1181 24.8452 24.1362 25.276 24.2568" stroke="black" stroke-width="1.80478" stroke-linecap="round"/>
<path d="M27.5702 32.0844C28.1179 31.8009 28.6019 31.4139 28.877 31.0585" stroke="black" stroke-width="1.80478" stroke-linecap="round"/>
<path d="M34.3118 29.7875L36.3468 28.1421" stroke="black" stroke-width="1.80478" stroke-linecap="round"/>
<path d="M35.7598 28.6421L36.7704 29.6002" stroke="black" stroke-width="1.80478" stroke-linecap="round"/>
<path d="M30.1175 26.9376C30.3197 26.9407 30.4862 26.7794 30.4893 26.5772C30.4925 26.3751 30.3311 26.2086 30.1288 26.2054C29.9266 26.2023 29.7602 26.3636 29.757 26.5658C29.7539 26.768 29.9153 26.9344 30.1175 26.9376Z" fill="black"/>
<path d="M24.5267 27.0767C24.7289 27.0799 24.8954 26.9186 24.8985 26.7164C24.9016 26.5142 24.7402 26.3478 24.538 26.3446C24.3358 26.3414 24.1693 26.5028 24.1662 26.7049C24.1631 26.9071 24.3245 27.0736 24.5267 27.0767Z" fill="black"/>
<path d="M42.2863 18.6572C44.7159 16.9718 45.5353 13.9357 44.1165 11.8758C42.6977 9.81599 39.5779 9.51243 37.1483 11.1978C34.7186 12.8832 33.8992 15.9194 35.318 17.9792C36.7369 20.0391 39.8567 20.3426 42.2863 18.6572Z" fill="black"/>
<path d="M31.0637 66.0441L39.9894 85.0705L36.8747 102.736C36.5858 104.281 35.8024 107.309 34.7225 108.079C32.4395 109.969 30.6808 109.668 30.3213 109.531L28.9554 125.089L10.8393 123.059L11.9046 104.689L8.19872 100.428L6.20696 122.018L-12.6815 120.487C-12.1853 106.191 -10.1626 72.361 -8.05977 65.5114C-3.29357 54.3119 4.36058 56.9799 7.58983 59.7141L15.4123 69.7671C20.8376 58.0334 28.4756 61.6056 31.0637 66.0441Z" fill="black" stroke="black" stroke-width="1.20319"/>
</g>
<defs>
<clipPath id="clip0_692_595">
<rect x="0.74707" y="0.536133" width="59.3104" height="59.3104" rx="29.6552" fill="white"/>
</clipPath>
</defs>
</svg>
