<svg width="30" height="28" viewBox="0 0 30 28" fill="none" xmlns="http://www.w3.org/2000/svg">
<path d="M21.54 16.8C21.66 15.876 21.75 14.952 21.75 14C21.75 13.048 21.66 12.124 21.54 11.2H26.61C26.85 12.096 27 13.034 27 14C27 14.966 26.85 15.904 26.61 16.8H21.54ZM18.885 24.584C19.785 23.03 20.475 21.35 20.955 19.6H25.38C23.9268 21.9356 21.6212 23.7048 18.885 24.584ZM18.51 16.8H11.49C11.34 15.876 11.25 14.952 11.25 14C11.25 13.048 11.34 12.11 11.49 11.2H18.51C18.645 12.11 18.75 13.048 18.75 14C18.75 14.952 18.645 15.876 18.51 16.8ZM15 25.144C13.755 23.464 12.75 21.602 12.135 19.6H17.865C17.25 21.602 16.245 23.464 15 25.144ZM9 8.4H4.62C6.05828 6.0581 8.36219 4.28608 11.1 3.416C10.2 4.97 9.525 6.65 9 8.4ZM4.62 19.6H9C9.525 21.35 10.2 23.03 11.1 24.584C8.36794 23.7043 6.06727 21.9348 4.62 19.6ZM3.39 16.8C3.15 15.904 3 14.966 3 14C3 13.034 3.15 12.096 3.39 11.2H8.46C8.34 12.124 8.25 13.048 8.25 14C8.25 14.952 8.34 15.876 8.46 16.8H3.39ZM15 2.842C16.245 4.522 17.25 6.398 17.865 8.4H12.135C12.75 6.398 13.755 4.522 15 2.842ZM25.38 8.4H20.955C20.4855 6.66604 19.7904 4.99225 18.885 3.416C21.645 4.298 23.94 6.076 25.38 8.4ZM15 0C6.705 0 0 6.3 0 14C0 17.713 1.58035 21.274 4.3934 23.8995C5.78628 25.1995 7.43986 26.2307 9.25975 26.9343C11.0796 27.6379 13.0302 28 15 28C18.9782 28 22.7936 26.525 25.6066 23.8995C28.4196 21.274 30 17.713 30 14C30 12.1615 29.612 10.341 28.8582 8.64243C28.1044 6.94387 26.9995 5.40053 25.6066 4.1005C24.2137 2.80048 22.5601 1.76925 20.7403 1.06569C18.9204 0.362121 16.9698 0 15 0Z" fill="black"/>
</svg>
