<svg width="29" height="28" viewBox="0 0 29 28" fill="none" xmlns="http://www.w3.org/2000/svg">
<path d="M14.5 0C18.4397 0 18.9312 0.0139999 20.4769 0.0839999C22.0212 0.154 23.0724 0.3878 23.9975 0.735C24.9545 1.0906 25.7607 1.5722 26.5669 2.3492C27.3042 3.04905 27.8747 3.89562 28.2388 4.83C28.5969 5.7218 28.8405 6.7382 28.913 8.2292C28.9812 9.7216 29 10.1962 29 14C29 17.8038 28.9855 18.2784 28.913 19.7708C28.8405 21.2618 28.5969 22.2768 28.2388 23.17C27.8758 24.1049 27.3051 24.9517 26.5669 25.6508C25.8418 26.3624 24.9651 26.9133 23.9975 27.265C23.0738 27.6108 22.0212 27.846 20.4769 27.916C18.9312 27.9818 18.4397 28 14.5 28C10.5604 28 10.0688 27.986 8.5231 27.916C6.97885 27.846 5.9276 27.6108 5.0025 27.265C4.03437 26.9143 3.15741 26.3633 2.4331 25.6508C1.69564 24.9511 1.1251 24.1045 0.76125 23.17C0.40165 22.2782 0.1595 21.2618 0.0869999 19.7708C0.0188499 18.2784 0 17.8038 0 14C0 10.1962 0.0144999 9.7216 0.0869999 8.2292C0.1595 6.7368 0.40165 5.7232 0.76125 4.83C1.12409 3.89505 1.69477 3.04825 2.4331 2.3492C3.15762 1.63692 4.03452 1.08602 5.0025 0.735C5.9276 0.3878 6.9774 0.154 8.5231 0.0839999C10.0688 0.0181999 10.5604 0 14.5 0ZM14.5 7C12.5772 7 10.7331 7.7375 9.37348 9.05025C8.01384 10.363 7.25 12.1435 7.25 14C7.25 15.8565 8.01384 17.637 9.37348 18.9497C10.7331 20.2625 12.5772 21 14.5 21C16.4228 21 18.2669 20.2625 19.6265 18.9497C20.9862 17.637 21.75 15.8565 21.75 14C21.75 12.1435 20.9862 10.363 19.6265 9.05025C18.2669 7.7375 16.4228 7 14.5 7ZM23.925 6.65C23.925 6.18587 23.734 5.74075 23.3941 5.41256C23.0542 5.08437 22.5932 4.9 22.1125 4.9C21.6318 4.9 21.1708 5.08437 20.8309 5.41256C20.491 5.74075 20.3 6.18587 20.3 6.65C20.3 7.11413 20.491 7.55925 20.8309 7.88744C21.1708 8.21563 21.6318 8.4 22.1125 8.4C22.5932 8.4 23.0542 8.21563 23.3941 7.88744C23.734 7.55925 23.925 7.11413 23.925 6.65ZM14.5 9.8C15.6537 9.8 16.7601 10.2425 17.5759 11.0302C18.3917 11.8178 18.85 12.8861 18.85 14C18.85 15.1139 18.3917 16.1822 17.5759 16.9698C16.7601 17.7575 15.6537 18.2 14.5 18.2C13.3463 18.2 12.2399 17.7575 11.4241 16.9698C10.6083 16.1822 10.15 15.1139 10.15 14C10.15 12.8861 10.6083 11.8178 11.4241 11.0302C12.2399 10.2425 13.3463 9.8 14.5 9.8Z" fill="black"/>
</svg>
