<svg width="28" height="28" viewBox="0 0 28 28" fill="none" xmlns="http://www.w3.org/2000/svg">
<path d="M25.375 0H2.625C1.18125 0 0 1.18125 0 2.625V25.375C0 26.8188 1.18125 28 2.625 28H25.375C26.8188 28 28 26.8188 28 25.375V2.625C28 1.18125 26.8188 0 25.375 0ZM10.5 22.75H7V10.5H10.5V22.75ZM8.75 8.75C8.28587 8.75 7.84075 8.56563 7.51256 8.23744C7.18437 7.90925 7 7.46413 7 7C7 6.53587 7.18437 6.09075 7.51256 5.76256C7.84075 5.43437 8.28587 5.25 8.75 5.25C9.21413 5.25 9.65925 5.43437 9.98744 5.76256C10.3156 6.09075 10.5 6.53587 10.5 7C10.5 7.46413 10.3156 7.90925 9.98744 8.23744C9.65925 8.56563 9.21413 8.75 8.75 8.75ZM22.75 22.75H19.25V15.75C19.25 15.2859 19.0656 14.8408 18.7374 14.5126C18.4092 14.1844 17.9641 14 17.5 14C17.0359 14 16.5908 14.1844 16.2626 14.5126C15.9344 14.8408 15.75 15.2859 15.75 15.75V22.75H12.25V10.5H15.75V12.6718C16.471 11.6813 17.577 10.5 18.8125 10.5C20.9895 10.5 22.75 12.4583 22.75 14.875V22.75Z" fill="black"/>
</svg>
