<svg width="14" height="14" viewBox="0 0 14 14" fill="none" xmlns="http://www.w3.org/2000/svg">
<path d="M6.84734 1.01027L7 1C7.56954 1 8.04024 1.42323 8.11473 1.97234L8.125 2.125V5.8735L11.875 5.875C12.4445 5.875 12.9152 6.29823 12.9897 6.84734L13 7C13 7.56954 12.5768 8.04024 12.0277 8.11473L11.875 8.125L8.125 8.1235V11.875C8.125 12.4445 7.70177 12.9152 7.15266 12.9897L7 13C6.43046 13 5.95976 12.5768 5.88527 12.0277L5.875 11.875V8.1235L2.125 8.125C1.55546 8.125 1.08476 7.70177 1.01027 7.15266L1 7C1 6.43046 1.42323 5.95976 1.97234 5.88527L2.125 5.875L5.875 5.8735V2.125C5.875 1.55546 6.29823 1.08476 6.84734 1.01027L7 1L6.84734 1.01027Z" fill="#292929"/>
<path d="M6.84734 1.01027L7 1C7.56954 1 8.04024 1.42323 8.11473 1.97234L8.125 2.125V5.8735L11.875 5.875C12.4445 5.875 12.9152 6.29823 12.9897 6.84734L13 7C13 7.56954 12.5768 8.04024 12.0277 8.11473L11.875 8.125L8.125 8.1235V11.875C8.125 12.4445 7.70177 12.9152 7.15266 12.9897L7 13C6.43046 13 5.95976 12.5768 5.88527 12.0277L5.875 11.875V8.1235L2.125 8.125C1.55546 8.125 1.08476 7.70177 1.01027 7.15266L1 7C1 6.43046 1.42323 5.95976 1.97234 5.88527L2.125 5.875L5.875 5.8735V2.125C5.875 1.55546 6.29823 1.08476 6.84734 1.01027L7 1L6.84734 1.01027Z" stroke="black"/>
</svg>
